{"accessors" : [{"bufferView" : 0, "byteOffset" : 0, "componentType" : 5123, "count" : 360, "type" : "SCALAR", "max" : [356], "min" : [0]}, {"bufferView" : 1, "byteOffset" : 0, "componentType" : 5126, "count" : 357, "type" : "VEC3", "max" : [179.601806640625, 179.601806640625, 179.601806640625], "min" : [0, 0, 0]}, {"bufferView" : 1, "byteOffset" : 12, "componentType" : 5126, "count" : 357, "type" : "VEC3", "max" : [0.934176981449127, 0.934176981449127, 0.934176981449127], "min" : [-0.934176683425903, -0.934176683425903, -0.934176683425903]}, {"bufferView" : 0, "byteOffset" : 720, "componentType" : 5123, "count" : 288, "type" : "SCALAR", "max" : [275], "min" : [0]}, {"bufferView" : 2, "byteOffset" : 0, "componentType" : 5126, "count" : 276, "type" : "VEC3", "max" : [178.174499511719, 178.174499511719, 178.174499511719], "min" : [1.42728805541992, 1.42728805541992, 1.42728805541992]}, {"bufferView" : 2, "byteOffset" : 12, "componentType" : 5126, "count" : 276, "type" : "VEC3", "max" : [1.00000429153442, 1.00000429153442, 1.00000429153442], "min" : [-1.00000429153442, -1.00000429153442, -1.00000429153442]}], "asset" : {"generator" : "Aspose.3D 20.2.1", "version" : "2.0"}, "buffers" : [{"uri" : "buffer.bin", "byteLength" : 16500}], "bufferViews" : [{"buffer" : 0, "byteOffset" : 0, "byteLength" : 1296, "target" : 34963}, {"buffer" : 0, "byteOffset" : 1300, "byteLength" : 8568, "byteStride" : 24, "target" : 34962}, {"buffer" : 0, "byteOffset" : 9872, "byteLength" : 6624, "byteStride" : 24, "target" : 34962}], "cameras" : [{"perspective" : {"aspectRatio" : 1.777778, "yfov" : 0.857556008794351, "zfar" : 100, "znear" : 0.1}, "type" : "perspective"}, {"orthographic" : {"xmag" : 1, "ymag" : 1, "zfar" : 1000, "znear" : 1}, "type" : "orthographic"}], "materials" : [{"pbrMetallicRoughness" : {"baseColorFactor" : [0.7152941, 0.03046806, 0.0374428, 1], "metallicFactor" : 0, "roughnessFactor" : 0}, "emissiveFactor" : [0, 0, 0], "alphaMode" : "OPAQUE", "doubleSided" : false}, {"pbrMetallicRoughness" : {"baseColorFactor" : [0.7152941, 0.03046806, 0.0374428, 1], "metallicFactor" : 0, "roughnessFactor" : 0}, "emissiveFactor" : [0, 0, 0], "alphaMode" : "OPAQUE", "doubleSided" : false}], "meshes" : [{"primitives" : [{"attributes" : {"POSITION" : 1, "NORMAL" : 2}, "indices" : 0, "material" : 0, "mode" : 4}]}, {"primitives" : [{"attributes" : {"POSITION" : 4, "NORMAL" : 5}, "indices" : 3, "material" : 1, "mode" : 4}]}], "nodes" : [{"camera" : 0, "matrix" : [0.6859207, 0.7276763, 0, 0, -0.3240135, 0.3054208, 0.8953956, 0, 0.6515582, -0.6141704, 0.4452714, 0, 7.481132, -6.50764, 5.343665, 1], "name" : "Camera"}, {"camera" : 1, "matrix" : [0.7071067, 0.7071068, 1.49012E-08, 0, -0.4082483, 0.4082482, 0.8164966, 0, 0.5773503, -0.5773503, 0.5773503, 0, 519.03, -519.0301, 608.8309, 1], "name" : "skp_camera_Last_Saved_SketchUp_View"}, {"matrix" : [1, 0, 0, 0, 0, 1, 0, 0, -2.98023E-08, 0, 1, 0, -89.80089, -89.80088, 1.90735E-06, 1], "mesh" : 0, "name" : "instance_0"}, {"matrix" : [1, 0, 0, 0, 0, 1, 0, 0, -2.98023E-08, 0, 1, 0, -89.80089, -89.80088, 1.90735E-06, 1], "mesh" : 1, "name" : "instance_0_001"}, {"children" : [1, 2, 3], "matrix" : [1.802E-09, 0.02386819, 0.008687311, 0, -0.0254, 1.91765E-09, 0, 0, -6.55874E-10, -0.008687311, 0.02386819, 0, 0, 0, 0, 1], "name" : "SketchUp"}], "scene" : 0, "scenes" : [{"nodes" : [0, 4]}]}